<svg xmlns="http://www.w3.org/2000/svg" viewBox="0 0 128 128" role="img" aria-label="Gold Goggles Crab">
  <defs>
    <linearGradient id="bg" x1="0" y1="0" x2="1" y2="1">
      <stop offset="0%" stop-color="#35260f"/>
      <stop offset="100%" stop-color="#5a3d14"/>
    </linearGradient>
    <linearGradient id="shell" x1="0" y1="0" x2="1" y2="1">
      <stop offset="0%" stop-color="#ffd15c"/>
      <stop offset="100%" stop-color="#ffb347"/>
    </linearGradient>
  </defs>
  <rect x="1" y="1" width="126" height="126" rx="26" fill="url(#bg)" stroke="#8a6427"/>
  <ellipse cx="64" cy="76" rx="34" ry="24" fill="url(#shell)"/>
  <circle cx="50" cy="62" r="10" fill="#fff"/><circle cx="78" cy="62" r="10" fill="#fff"/>
  <circle cx="50" cy="62" r="4" fill="#4b3614"/><circle cx="78" cy="62" r="4" fill="#4b3614"/>
  <path d="M33 73c-8-3-14-10-16-20M95 73c8-3 14-10 16-20" fill="none" stroke="#ffc45a" stroke-width="7" stroke-linecap="round"/>
  <path d="M45 97l-12 13M56 100l-10 15M82 100l10 15M93 97l12 13" fill="none" stroke="#ffc45a" stroke-width="6" stroke-linecap="round"/>
  <circle cx="50" cy="62" r="12" fill="none" stroke="#1f2740" stroke-width="2"/>
  <circle cx="78" cy="62" r="12" fill="none" stroke="#1f2740" stroke-width="2"/>
  <path d="M62 62h4" stroke="#1f2740" stroke-width="2"/>
</svg>
