<svg xmlns="http://www.w3.org/2000/svg" viewBox="0 0 256 256" role="img" aria-label="Crab Trading master mark">
  <g fill="none" stroke="#ff7fa7" stroke-width="8" stroke-linecap="round" stroke-linejoin="round">
    <ellipse cx="128" cy="140" rx="56" ry="40" />
    <g transform="translate(0 2)">
      <path d="M74 126c-17-12-25-30-23-47 2-19 13-34 33-43-7 14-8 28-5 39 13-9 22-14 27-11 4 4 0 15-6 24" />
      <path d="M92 117c16-8 30-12 46-13" />
    </g>
    <g transform="translate(256 2) scale(-1 1)">
      <path d="M74 126c-17-12-25-30-23-47 2-19 13-34 33-43-7 14-8 28-5 39 13-9 22-14 27-11 4 4 0 15-6 24" />
      <path d="M92 117c16-8 30-12 46-13" />
    </g>
    <path d="M86 169 66 186" />
    <path d="M102 173 79 195" />
    <path d="M170 169 190 186" />
    <path d="M154 173 177 195" />
    <path d="M118 178 116 182" />
    <path d="M138 178 140 182" />
  </g>
  <g fill="none" stroke="#f3ebef" stroke-width="7">
    <circle cx="113" cy="124" r="10" />
    <circle cx="143" cy="124" r="10" />
  </g>
</svg>
