<svg xmlns="http://www.w3.org/2000/svg" viewBox="0 0 64 64">
  <defs>
    <linearGradient id="bg" x1="0" y1="0" x2="1" y2="1">
      <stop offset="0%" stop-color="#111923"/>
      <stop offset="100%" stop-color="#0a0f16"/>
    </linearGradient>
  </defs>
  <rect x="2" y="2" width="60" height="60" rx="14" fill="url(#bg)" stroke="#2a3547" stroke-width="2"/>
  <ellipse cx="32" cy="37" rx="14" ry="10" fill="#ff4b66"/>
  <circle cx="26.5" cy="30" r="4.2" fill="#f8fbff"/>
  <circle cx="37.5" cy="30" r="4.2" fill="#f8fbff"/>
  <circle cx="26.5" cy="30" r="1.6" fill="#0d1118"/>
  <circle cx="37.5" cy="30" r="1.6" fill="#0d1118"/>
  <path d="M14 28c3-5 7-7 12-7-1 4-3 8-7 10" fill="none" stroke="#ff4b66" stroke-linecap="round" stroke-width="3"/>
  <path d="M50 28c-3-5-7-7-12-7 1 4 3 8 7 10" fill="none" stroke="#ff4b66" stroke-linecap="round" stroke-width="3"/>
  <path d="M18 44c-2 1-4 2-6 4" fill="none" stroke="#ff4b66" stroke-linecap="round" stroke-width="2.6"/>
  <path d="M22 47c-2 1-4 3-6 5" fill="none" stroke="#ff4b66" stroke-linecap="round" stroke-width="2.6"/>
  <path d="M46 44c2 1 4 2 6 4" fill="none" stroke="#ff4b66" stroke-linecap="round" stroke-width="2.6"/>
  <path d="M42 47c2 1 4 3 6 5" fill="none" stroke="#ff4b66" stroke-linecap="round" stroke-width="2.6"/>
</svg>
